Coordinates
version=1
nRows=9
nColumns=24
inDegrees=yes

Units are S.I. units (second, meters, Newtons, ...)
Angles are in degrees.

endheader
time	pelvis_tilt	pelvis_list	pelvis_rotation	pelvis_tx	pelvis_ty	pelvis_tz	hip_flexion_r	hip_adduction_r	hip_rotation_r	knee_angle_r	ankle_angle_r	subtalar_angle_r	mtp_angle_r	hip_flexion_l	hip_adduction_l	hip_rotation_l	knee_angle_l	ankle_angle_l	subtalar_angle_l	mtp_angle_l	lumbar_extension	lumbar_bending	lumbar_rotation
      3.30000000	    -24.24788015	      8.32279896	    361.02713892	      0.55604678	      1.35484340	     -1.05197490	     22.34083021	     -6.87649710	      4.03956068	    -36.56358261	      1.41868116	     -4.43592222	     21.93406863	     38.81129829	     10.44052187	     -2.05750391	     -6.45967667	    -11.67719396	     -8.14852371	     30.55052710	     28.74412565	     -4.37243844	   -209.73382189
      3.30500000	    -24.10242650	      8.39878670	    361.15194588	      0.56109193	      1.35533374	     -1.05289016	     22.87649284	     -7.11531337	      3.83436566	    -38.13083689	      0.33673354	     -4.21541164	     23.34721484	     38.54730670	     10.67410949	     -1.80424360	     -6.85017339	    -11.46418938	     -8.34281329	     29.95697527	     28.61238075	     -4.55988622	   -209.88912368
      3.31000000	    -23.92538567	      8.46956681	    361.28635436	      0.56615478	      1.35584806	     -1.05383350	     23.37628707	     -7.36095100	      3.62449934	    -39.65864052	     -0.69718112	     -3.97378833	     24.69464630	     38.21504805	     10.91531902	     -1.56325450	     -7.17950319	    -11.23861460	     -8.50826890	     29.39557476	     28.45472631	     -4.74381581	   -210.06126027
      3.31500000	    -23.70588815	      8.53950954	    361.42201198	      0.57124826	      1.35642973	     -1.05476664	     23.82016597	     -7.60859343	      3.42948936	    -41.12614500	     -1.66190008	     -3.71964306	     25.96430771	     37.79353705	     11.15994014	     -1.34232112	     -7.43027208	    -11.00601143	     -8.62402213	     28.87852743	     28.25683345	     -4.93117777	   -210.25113701
      3.32000000	    -23.50030665	      8.59575671	    361.56065946	      0.57632630	      1.35698940	     -1.05571398	     24.27621673	     -7.84463422	      3.24551405	    -42.54386381	     -2.52172147	     -3.45220014	     27.13957708	     37.36061594	     11.39384678	     -1.14513942	     -7.63119375	    -10.76607308	     -8.71321069	     28.41005759	     28.08336550	     -5.09655661	   -210.44340171
      3.32500000	    -23.27100374	      8.63918035	    361.68920152	      0.58138259	      1.35759388	     -1.05665441	     24.69796396	     -8.06207198	      3.08774410	    -43.89300813	     -3.25689735	     -3.15905301	     28.19758782	     36.86935808	     11.61122739	     -0.95702692	     -7.76793326	    -10.52490296	     -8.77690410	     27.97588905	     27.88175199	     -5.23679653	   -210.64622228
      3.33000000	    -23.03720305	      8.67126596	    361.82400975	      0.58642841	      1.35820784	     -1.05760961	     25.10048248	     -8.27490073	      2.92440621	    -45.17787401	     -3.77834703	     -2.74240461	     29.03645699	     36.34535801	     11.82084769	     -0.76622955	     -7.85221188	    -10.28493257	     -8.81761908	     27.64988753	     27.68325956	     -5.36060590	   -210.83568375
      3.33500000	    -22.80016690	      8.69972387	    361.91249345	      0.59141670	      1.35886307	     -1.05845180	     25.50284622	     -8.44330246	      2.84059076	    -46.38510758	     -4.26596143	     -2.53779226	     29.94298147	     35.79482698	     11.99294692	     -0.65302492	     -7.88390962	    -10.04803962	     -8.82160204	     27.23874069	     27.47502262	     -5.46714825	   -211.04067963
      3.34000000	    -22.59402541	      8.70766406	    362.00917368	      0.59637900	      1.35948804	     -1.05933718	     25.92524053	     -8.60087313	      2.74328031	    -47.52989474	     -4.48667107	     -2.12554035	     30.52690492	     35.26064730	     12.14881629	     -0.51175471	     -7.87999256	     -9.82716284	     -8.82691446	     27.00776821	     27.31663195	     -5.53330854	   -211.19590176
